<?xml version="1.0" encoding="UTF-8"?>
<!DOCTYPE svg PUBLIC "-//W3C//DTD SVG 1.1//EN" "http://www.w3.org/Graphics/SVG/1.1/DTD/svg11.dtd">
<!-- Creator: CorelDRAW 2017 -->
<svg xmlns="http://www.w3.org/2000/svg" xml:space="preserve" width="3.25013in" height="1.01405in" version="1.1" style="shape-rendering:geometricPrecision; text-rendering:geometricPrecision; image-rendering:optimizeQuality; fill-rule:evenodd; clip-rule:evenodd"
viewBox="0 0 2485.63 775.53"
 xmlns:xlink="http://www.w3.org/1999/xlink">
 <defs>
  <style type="text/css">
   <![CDATA[
    .fil1 {fill:#BC2A50}
    .fil0 {fill:#008A6B}
    .fil2 {fill:#008A6B;fill-rule:nonzero}
   ]]>
  </style>
 </defs>
 <g id="Layer_x0020_1">
  <metadata id="CorelCorpID_0Corel-Layer"/>
  <g id="_2486862449152">
   <path class="fil0" d="M566.68 258.22l39.48 0 133.78 0c25.89,0 47.06,21.18 47.06,47.06l0 165.86c0,25.88 -21.18,47.06 -47.06,47.06l-183.7 0 0.19 110.1c-5.09,-62.1 -18.76,-115.79 -58.65,-167.96 -49.16,-64.27 -136.55,-134.92 -188.65,-214.7 -33.99,-52.04 -59.77,-122.45 -28.25,-181.55 20.29,-38.04 60.14,-64.09 106.04,-64.09l86.19 0c29.41,0 53.48,24.07 53.48,53.48l0 114.1 0 50.54c0,22.06 18.05,40.11 40.11,40.11z"/>
   <path class="fil1" d="M220.32 517.31l-39.48 0 -133.78 0c-25.88,0 -47.06,-21.17 -47.06,-47.06l0 -165.86c0,-25.88 21.18,-47.06 47.06,-47.06l183.71 0 -0.19 -110.09c5.09,62.1 18.76,115.79 58.65,167.95 49.16,64.27 136.55,134.92 188.65,214.7 33.99,52.04 59.77,122.45 28.25,181.55 -20.29,38.04 -60.14,64.09 -106.04,64.09l-86.19 0c-29.41,0 -53.47,-24.06 -53.47,-53.48l0 -114.09 0 -50.54c0,-22.06 -18.05,-40.11 -40.11,-40.11z"/>
   <path class="fil1" d="M2208.01 586.26l277.62 0 0 -277.62 0 -10.04c0,-68.57 -56.11,-124.68 -124.68,-124.68l-49.54 0 -27.01 0 -325.64 0 0 134.72 114.52 0 0 277.62 134.72 0zm97.49 -273.79c22.87,0 41.58,18.71 41.58,41.58l0 31.13 0 62.54 -135.25 0 0 -135.25 64.38 0 29.29 0z"/>
   <path class="fil1" d="M1322.69 451.54l0 -277.62 277.62 0 10.04 0c68.57,0 124.68,56.11 124.68,124.68l0 49.54c0,146.45 0,264.87 0,411.32l-134.72 0 0 -173.2 -277.62 0 0 -134.72zm273.79 -97.49c0,-22.87 -18.71,-41.58 -41.58,-41.58l-31.13 0 -62.54 0 0 135.25 135.25 0 0 -64.38 0 -29.28z"/>
   <path class="fil1" d="M1677.95 237.81l57.08 74.65 0 30.66 0 104.59 64.38 0 29.29 0c22.87,0 41.58,-18.71 41.58,-41.58l0 -31.13 0 -31.88 0 -30.66 0 -138.55 138.55 0 0 277.62 0 10.04c0,68.57 -56.1,124.68 -124.68,124.68l-49.54 0c-146.45,0 -91.67,0 -238.12,0 0,-137.45 0,-274.9 0,-412.34l81.47 63.9z"/>
   <path class="fil1" d="M859.72 451.54l0 -277.62 277.62 0 10.05 0c68.57,0 124.67,56.11 124.67,124.68l0 49.54 0 238.12 -134.72 0 -277.62 0 0 -134.72zm273.79 -97.49c0,-22.87 -18.71,-41.58 -41.58,-41.58l-31.13 0 -62.54 0 0 135.25 135.25 0 0 -64.38 0 -29.28z"/>
   <path class="fil0" d="M1914.28 665.79c0,-22.87 -18.71,-41.58 -41.58,-41.58l-31.13 0 -62.54 0 0 135.25 135.25 0 0 -64.38 0 -29.29z"/>
   <path class="fil0" d="M1937.09 665.79c0,-22.87 18.71,-41.58 41.58,-41.58l31.13 0 62.53 0 0 135.25 -135.25 0 0 -64.38 0 -29.29z"/>
   <path class="fil2" d="M999.04 737.98l-24.08 0 0 -58.4c0,-2.83 -0.98,-4.65 -2.94,-5.45 -1.02,-0.44 -3.38,-0.65 -7.08,-0.65 -3.27,0 -5.63,0.25 -7.08,0.76 -2.54,0.95 -3.81,2.74 -3.81,5.36l0 58.39 -25.17 0 0 -58.39c0,-2.61 -1.23,-4.41 -3.7,-5.36 -1.53,-0.51 -3.92,-0.76 -7.19,-0.76 -3.56,0 -5.92,0.22 -7.08,0.65 -1.96,0.8 -2.94,2.61 -2.94,5.45l0 58.4 -24.08 0 0 -62.87c0,-7.27 1.85,-13.08 5.56,-17.44 4,-4.72 9.51,-7.08 16.56,-7.08l70.93 0c7.12,0 12.64,2.36 16.56,7.08 3.7,4.36 5.56,10.17 5.56,17.44l0 62.87zm40.66 0l-22.66 0 0 -88.04 22.66 0 0 88.04zm100.59 -87.82l-29.96 87.28 -27.13 0 -30.07 -87.28 28.55 0 15.04 50.89 15.15 -50.89 28.44 0zm76.18 24.52l-35.19 0c-2.83,0 -4.25,1.27 -4.25,3.81 0,2.83 1.6,4.25 4.79,4.25l34.43 0 0 25.71 -36.94 0c-2.18,0 -3.27,1.07 -3.27,3.22 0,2.43 1.09,3.65 3.27,3.65l36.94 0 0 22.34 -47.51 0c-4.29,0 -8.14,-2.11 -11.55,-6.32 -3.27,-3.98 -4.9,-8.19 -4.9,-12.62l0 -49.07c0,-5.45 1.73,-9.99 5.18,-13.6 3.45,-3.63 7.86,-5.45 13.24,-5.45l45.76 0 0 24.08zm83.92 5.88c0,15.69 -9.23,23.53 -27.68,23.53l-19.83 0 0 33.89 -22.67 0 0 -88.04 42.5 0c18.23,0 27.35,7.99 27.35,23.97 0,0.73 0.05,1.83 0.17,3.32 0.11,1.49 0.16,2.6 0.16,3.32zm-25.72 -2.72c0,-1.09 -0.38,-2 -1.14,-2.72 -0.76,-0.73 -1.69,-1.09 -2.78,-1.09l-13.4 0c-1.01,0 -1.87,0.38 -2.56,1.15 -0.69,0.76 -1.04,1.65 -1.04,2.67 0,1.02 0.36,1.92 1.09,2.72 0.73,0.8 1.56,1.2 2.51,1.2l13.4 0c1.09,0 2.02,-0.4 2.78,-1.2 0.76,-0.8 1.14,-1.71 1.14,-2.72zm97.76 59.82l-44.13 0c-5.31,0 -9.63,-1.24 -12.97,-3.71 -3.85,-2.83 -5.77,-6.77 -5.77,-11.86l0 -72.26 23.21 0 0 62.11 39.66 0 0 25.72zm83.26 -19.83c0,5.67 -1.94,10.44 -5.83,14.33 -3.89,3.89 -8.66,5.83 -14.33,5.83l-29.64 0c-5.59,0 -10.33,-1.94 -14.22,-5.83 -3.89,-3.89 -5.83,-8.66 -5.83,-14.33l0 -67.88 25.06 0 0 58.84c0,1.82 0.62,3.32 1.85,4.52 1.23,1.2 2.76,1.8 4.58,1.8l8.93 0c1.74,0 3.22,-0.62 4.41,-1.85 1.2,-1.23 1.8,-2.72 1.8,-4.47l0 -58.84 23.21 0 0 67.88zm87.73 -8.93c0,8.42 -1.85,15.18 -5.56,20.27 -4.21,5.81 -10.35,8.72 -18.41,8.72l-43.37 0 0 -23.21 38.9 0c2.76,0 4.14,-1.27 4.14,-3.81 0,-2.61 -1.49,-3.92 -4.47,-3.92l-23.97 0c-6.24,0 -11.08,-3.63 -14.49,-10.89 -2.69,-5.74 -4.03,-12.09 -4.03,-19.07 0,-6.83 1.67,-12.82 5.01,-17.98 3.92,-5.89 9.15,-8.83 15.69,-8.83l47.51 0 0 23.43 -36.28 0c-3.56,0 -5.34,1.13 -5.34,3.38 0,1.23 0.51,2.29 1.53,3.16 1.02,0.87 2.18,1.31 3.49,1.31l22.12 0c4,0 7.7,2.04 11.11,6.1 4.29,5.09 6.43,12.2 6.43,21.36z"/>
  </g>
 </g>
</svg>
